<?xml version="1.0" encoding="iso-8859-1"?>
<!-- Generator: Adobe Illustrator 19.0.0, SVG Export Plug-In . SVG Version: 6.00 Build 0)  -->
<svg xmlns="http://www.w3.org/2000/svg" xmlns:xlink="http://www.w3.org/1999/xlink" version="1.1" id="Capa_1" x="0px" y="0px" viewBox="0 0 512 512" style="enable-background:new 0 0 512 512;" xml:space="preserve">
<g>
	<g>
		<g>
			<path d="M501.333,426.667h-416v-416C85.333,4.771,80.563,0,74.667,0H53.333c-5.896,0-10.667,4.771-10.667,10.667v416h-32     C4.771,426.667,0,431.438,0,437.333v21.333c0,5.896,4.771,10.667,10.667,10.667h32v32c0,5.896,4.771,10.667,10.667,10.667h21.333     c5.896,0,10.667-4.771,10.667-10.667v-32h416c5.896,0,10.667-4.771,10.667-10.667v-21.333     C512,431.438,507.229,426.667,501.333,426.667z"/>
			<path d="M124.874,359.541c4.166,4.166,10.919,4.166,15.085,0l105.374-105.374l48.917,48.917c8.33,8.33,21.836,8.33,30.167,0     L448,179.5v1.833c0,5.896,4.771,10.667,10.667,10.667H480c5.891,0,10.667-4.776,10.667-10.667v-64     c0-5.891-4.776-10.667-10.667-10.667h-64c-5.891,0-10.667,4.776-10.667,10.667v21.333c0,5.896,4.771,10.667,10.667,10.667h1.833     l-108.5,108.5l-48.917-48.917c-8.33-8.33-21.836-8.33-30.167,0L109.792,329.374c-4.166,4.166-4.166,10.919,0,15.085     L124.874,359.541z"/>
		</g>
	</g>
</g>
<g>
</g>
<g>
</g>
<g>
</g>
<g>
</g>
<g>
</g>
<g>
</g>
<g>
</g>
<g>
</g>
<g>
</g>
<g>
</g>
<g>
</g>
<g>
</g>
<g>
</g>
<g>
</g>
<g>
</g>
</svg>
