<?xml version="1.0" encoding="iso-8859-1"?>
<!-- Generator: Adobe Illustrator 18.0.0, SVG Export Plug-In . SVG Version: 6.00 Build 0)  -->
<!DOCTYPE svg PUBLIC "-//W3C//DTD SVG 1.1//EN" "http://www.w3.org/Graphics/SVG/1.1/DTD/svg11.dtd">
<svg version="1.1" id="Capa_1" xmlns="http://www.w3.org/2000/svg" xmlns:xlink="http://www.w3.org/1999/xlink" x="0px" y="0px"
	 viewBox="0 0 376 376" style="enable-background:new 0 0 376 376;" xml:space="preserve">
<g>
	<path d="M366,341H20V25c0-5.523-4.477-10-10-10C4.477,15,0,19.477,0,25v326c0,5.523,4.477,10,10,10h356c5.524,0,10-4.477,10-10
		C376,345.477,371.524,341,366,341z"/>
	<circle cx="80.41" cy="128.41" r="28"/>
	<circle cx="328.41" cy="199.421" r="28"/>
	<circle cx="101.41" cy="302.049" r="15"/>
	<circle cx="148.211" cy="246.549" r="10.5"/>
	<circle cx="328.41" cy="284.078" r="10.5"/>
	<circle cx="216" cy="158.421" r="28"/>
	<circle cx="244" cy="257.049" r="45"/>
	<circle cx="86.41" cy="219.049" r="15"/>
	<circle cx="154.211" cy="158.421" r="6"/>
	<circle cx="244" cy="38.41" r="6"/>
	<path d="M289,148.41c11.043,0,20-8.953,20-20c0-11.047-8.957-20-20-20c-11.041,0-20,8.953-20,20
		C269,139.457,277.959,148.41,289,148.41z"/>
	<circle cx="174.211" cy="70.41" r="13"/>
</g>
<g>
</g>
<g>
</g>
<g>
</g>
<g>
</g>
<g>
</g>
<g>
</g>
<g>
</g>
<g>
</g>
<g>
</g>
<g>
</g>
<g>
</g>
<g>
</g>
<g>
</g>
<g>
</g>
<g>
</g>
</svg>
